<svg version="1.1" xmlns="http://www.w3.org/2000/svg" viewBox="0 0 638.03125 247" width="638.03125" height="247">
  <!-- svg-source:excalidraw -->
  
  <defs>
    <style class="style-fonts">
      @font-face {
        font-family: "Virgil";
        src: url("https://file%2B.vscode-resource.vscode-cdn.net/Users/master/.vscode/extensions/pomdtr.excalidraw-editor-3.5.1/public//dist/excalidraw-assets/Virgil.woff2");
      }
      @font-face {
        font-family: "Cascadia";
        src: url("https://file%2B.vscode-resource.vscode-cdn.net/Users/master/.vscode/extensions/pomdtr.excalidraw-editor-3.5.1/public//dist/excalidraw-assets/Cascadia.woff2");
      }
    </style>
  </defs>
  <rect x="0" y="0" width="638.03125" height="247" fill="#ffffff"></rect><g stroke-linecap="round"><g transform="translate(246 130) rotate(0 60 0)"><path d="M0 0 C20 0, 100 0, 120 0 M0 0 C20 0, 100 0, 120 0" stroke="#1e1e1e" stroke-width="1" fill="none"></path></g><g transform="translate(246 130) rotate(0 60 0)"><path d="M120 0 L106.41 6.34 L106.41 -6.34 L120 0" stroke="none" stroke-width="0" fill="#1e1e1e" fill-rule="evenodd"></path><path d="M120 0 C115.38 2.16, 110.76 4.31, 106.41 6.34 M120 0 C117.17 1.32, 114.34 2.64, 106.41 6.34 M106.41 6.34 C106.41 2.03, 106.41 -2.28, 106.41 -6.34 M106.41 6.34 C106.41 3.14, 106.41 -0.06, 106.41 -6.34 M106.41 -6.34 C110.73 -4.32, 115.05 -2.31, 120 0 M106.41 -6.34 C110.11 -4.61, 113.82 -2.88, 120 0 M120 0 C120 0, 120 0, 120 0 M120 0 C120 0, 120 0, 120 0" stroke="#1e1e1e" stroke-width="1" fill="none"></path></g></g><mask></mask><g stroke-linecap="round"><g transform="translate(486.4996110089478 50) rotate(0 -2.4972043576405554 80)"><path d="M0 0 C19.91 33.35, 39.82 66.71, 95.51 160 M0 0 C38.09 63.82, 76.19 127.64, 95.51 160 M95.51 160 C38.09 159.43, -19.33 158.85, -100.5 158.04 M95.51 160 C20.9 159.25, -53.7 158.51, -100.5 158.04 M-100.5 158.04 C-73.99 116.35, -47.47 74.65, 0 0 M-100.5 158.04 C-76.47 120.25, -52.44 82.46, 0 0" stroke="#000000" stroke-width="1" fill="none"></path></g></g><mask></mask><g stroke-linecap="round"><g transform="translate(146.49961100894768 50) rotate(0 -2.4972043576405554 80)"><path d="M0 0 C27.3 45.73, 54.6 91.47, 95.51 160 M0 0 C33.77 56.58, 67.54 113.16, 95.51 160 M95.51 160 C52.36 159.57, 9.21 159.14, -100.5 158.04 M95.51 160 C28.4 159.33, -38.7 158.66, -100.5 158.04 M-100.5 158.04 C-71.81 112.93, -43.13 67.82, 0 0 M-100.5 158.04 C-66.27 104.21, -32.04 50.39, 0 0" stroke="#000000" stroke-width="1" fill="none"></path></g></g><mask></mask><g transform="translate(126 10) rotate(0 24.77997589111328 12.5)"><text x="0" y="0" font-family="Virgil, Segoe UI Emoji" font-size="20px" fill="#1e1e1e" text-anchor="start" style="white-space: pre;" direction="ltr" dominant-baseline="text-before-edge">Text</text></g><g transform="translate(10 212) rotate(0 29.369972229003906 12.5)"><text x="0" y="0" font-family="Virgil, Segoe UI Emoji" font-size="20px" fill="#1e1e1e" text-anchor="start" style="white-space: pre;" direction="ltr" dominant-baseline="text-before-edge">Writer</text></g><g transform="translate(206 210) rotate(0 34.379974365234375 12.5)"><text x="0" y="0" font-family="Virgil, Segoe UI Emoji" font-size="20px" fill="#1e1e1e" text-anchor="start" style="white-space: pre;" direction="ltr" dominant-baseline="text-before-edge">Reader</text></g><g transform="translate(346 210) rotate(0 29.296875 12)"><text x="0" y="0" font-family="Cascadia, Segoe UI Emoji" font-size="20px" fill="#1e1e1e" text-anchor="start" style="white-space: pre;" direction="ltr" dominant-baseline="text-before-edge">Coder</text></g><g transform="translate(546 210) rotate(0 41.015625 12)"><text x="0" y="0" font-family="Cascadia, Segoe UI Emoji" font-size="20px" fill="#1e1e1e" text-anchor="start" style="white-space: pre;" direction="ltr" dominant-baseline="text-before-edge">Machine</text></g><g transform="translate(466 10) rotate(0 23.4375 12)"><text x="0" y="0" font-family="Cascadia, Segoe UI Emoji" font-size="20px" fill="#1e1e1e" text-anchor="start" style="white-space: pre;" direction="ltr" dominant-baseline="text-before-edge">Code</text></g></svg>